<svg version="1.1" xmlns="http://www.w3.org/2000/svg" x="0px" y="0px"
	 viewBox="0 0 32 32">
<rect x="0" stroke="#000000" stroke-miterlimit="10" width="32" height="32"/>
<path fill-rule="evenodd" clip-rule="evenodd" fill="#FFFFFF" d="M28.7,23.6c0.4-0.2,0.6-0.8,0.3-1.2c-0.3-0.4-0.8-0.6-1.2-0.3L16,28.8L4.2,22.1c-0.4-0.2-1-0.1-1.2,0.3
	c-0.3,0.4-0.1,1,0.3,1.2l12.2,6.9c0.1,0.1,0.2,0.1,0.3,0.1c0.1,0,0.2,0,0.4,0c0.1,0,0.2-0.1,0.3-0.1L28.7,23.6z"/>
<path fill-rule="evenodd" clip-rule="evenodd" fill="#FFFFFF" d="M30,16.6c0.1-0.4-0.1-0.8-0.5-1L16.6,8.3c-0.1-0.1-0.2-0.1-0.3-0.1c-0.1,0-0.3,0-0.4,0c-0.1,0-0.3,0.1-0.4,0.1
	L2.6,15.6c-0.4,0.2-0.6,0.6-0.5,1c0,0.3,0.1,0.7,0.5,0.9l12.9,7.3c0.1,0.1,0.2,0.1,0.4,0.1s0.3,0,0.4,0c0.1,0,0.2-0.1,0.3-0.1
	l12.9-7.3C29.9,17.2,30,16.9,30,16.6z M27.3,16.5L16,10.2L4.7,16.5L16,22.9L27.3,16.5z"/>
<path fill-rule="evenodd" clip-rule="evenodd" fill="#FFFFFF" d="M30.1,11c0.5-0.3,0.6-0.9,0.4-1.3c-0.3-0.5-0.9-0.6-1.4-0.4L16,16.8L2.9,9.4C2.4,9.1,1.8,9.3,1.5,9.7
	c-0.3,0.5-0.1,1.1,0.4,1.3l13.6,7.7c0.1,0.1,0.2,0.1,0.4,0.1c0.1,0,0.3,0,0.4,0c0.1,0,0.2-0.1,0.3-0.1L30.1,11z"/>
<path fill="#FFFFFF" d="M3.9,10.2L16,2.8L28,10.2L16,17.1L3.9,10.2z"/>
<path fill-rule="evenodd" clip-rule="evenodd" fill="#FFFFFF" d="M30.1,9.1c0.5,0.3,0.7,0.9,0.4,1.3c-0.3,0.5-0.9,0.6-1.4,0.4L16,3.4L2.9,10.8c-0.5,0.3-1.1,0.1-1.4-0.4
	C1.2,10,1.4,9.3,1.9,9.1l13.6-7.6c0.1-0.1,0.2-0.1,0.4-0.1c0.1,0,0.3,0,0.4,0c0.1,0,0.2,0.1,0.3,0.1L30.1,9.1z"/>
</svg>
