<svg viewBox="150 125 300 275" fill="none" width="20" height="20" xmlns="http://www.w3.org/2000/svg" role="img" aria-labelledby="victory-title">
    <title id="victory-title">Victory</title>
    <g>
        <path fill="#FFF" d="M24 14 637 0 698 575 24 553Z"/>
        <path fill-rule="evenodd" clip-rule="evenodd" d="M224.72 153.323H246.7L305.019 368.113H283.037L224.72 153.323Z"
            fill="#FF684F"></path>
        <path fill-rule="evenodd" clip-rule="evenodd"
            d="M362.887 236.456H340.757L305.02 368.113H326.993L362.887 236.456Z" fill="#E04126"></path>
        <path fill-rule="evenodd" clip-rule="evenodd"
            d="M402.364 171.952H380.46L354.259 268.11H376.073L402.364 171.952Z" fill="#FF684F"></path>
        <path fill-rule="evenodd" clip-rule="evenodd"
            d="M202.738 153.323H224.72L283.037 368.113C276.722 368.113 270.582 366.021 265.562 362.158C260.541 358.295 256.919 352.876 255.251 346.734L202.738 153.323Z"
            fill="#E04126"></path>
        <path fill-rule="evenodd" clip-rule="evenodd"
            d="M246.701 153.323C253.016 153.323 259.156 155.416 264.176 159.279C269.197 163.141 272.819 168.561 274.487 174.703L327 368.113H305.019L246.701 153.323V153.323Z"
            fill="#FF9877"></path>
        <path fill-rule="evenodd" clip-rule="evenodd"
            d="M224.72 153.323L229.788 171.952H205.193C199.693 171.952 194.345 170.128 189.973 166.762C185.602 163.396 182.449 158.674 181 153.323H224.72Z"
            fill="#FF684F"></path>
        <path
            d="M410.724 206.13C419.717 199.788 421.914 187.298 415.635 178.223L396.799 151L366.01 165.612C356.028 170.349 351.744 182.35 356.442 192.416L356.452 192.437L390.176 176.432L410.724 206.129V206.13Z"
            fill="#FF684F"></path>
    </g>
</svg>